<?xml version="1.0" encoding="UTF-8" standalone="no"?>
<!DOCTYPE svg PUBLIC "-//W3C//DTD SVG 1.1//EN" "http://www.w3.org/Graphics/SVG/1.1/DTD/svg11.dtd">
<svg xmlns="http://www.w3.org/2000/svg" version="1.1" viewBox="0.00 0.00 1014.00 355.00">
<g stroke-width="2.00" fill="none" stroke-linecap="butt">
<path stroke="#2c7353" vector-effect="non-scaling-stroke" d="
  M 844.21 78.57
  A 0.44 0.44 0.0 0 0 844.20 79.20
  L 863.50 98.44
  A 0.44 0.44 0.0 0 1 863.50 99.06
  L 845.25 117.26
  A 0.44 0.44 0.0 0 0 845.23 117.86
  L 855.10 128.87
  A 0.44 0.44 0.0 0 0 855.74 128.89
  L 885.56 99.08
  A 0.44 0.44 0.0 0 0 885.56 98.46
  L 855.59 68.48
  A 0.44 0.44 0.0 0 0 854.98 68.47
  L 844.21 78.57"
/>
<path stroke="#2c7353" vector-effect="non-scaling-stroke" d="
  M 826.44 121.03
  A 0.32 0.32 0.0 0 1 826.44 120.57
  L 845.88 101.10
  A 0.32 0.32 0.0 0 0 845.87 100.64
  L 834.91 90.42
  A 0.32 0.32 0.0 0 0 834.46 90.43
  L 804.37 120.54
  A 0.32 0.32 0.0 0 0 804.37 121.00
  L 834.37 150.99
  A 0.32 0.32 0.0 0 0 834.84 150.98
  L 844.82 139.83
  A 0.32 0.32 0.0 0 0 844.81 139.39
  L 826.44 121.03"
/>
<path stroke="#2c7353" vector-effect="non-scaling-stroke" d="
  M 292.93 244.44
  L 290.85 254.79
  A 0.43 0.43 0.0 0 0 291.27 255.30
  L 317.54 255.29
  Q 317.89 255.29 317.95 254.94
  L 340.49 127.05
  A 0.70 0.70 0.0 0 0 339.80 126.23
  L 314.20 126.23
  A 0.69 0.68 -84.9 0 0 313.53 126.80
  L 304.95 175.75
  Q 304.37 179.05 303.09 175.96
  Q 300.29 169.25 291.30 166.96
  C 280.97 164.34 268.78 166.86 260.13 172.43
  C 240.26 185.22 231.92 209.86 234.06 232.56
  C 234.78 240.21 239.42 248.73 246.46 253.09
  C 252.63 256.92 259.31 257.60 266.50 257.18
  C 277.16 256.57 285.04 251.67 292.28 244.11
  Q 293.18 243.16 292.93 244.44"
/>
<path stroke="#2c7353" vector-effect="non-scaling-stroke" d="
  M 87.11 236.29
  C 78.22 235.11 72.43 228.36 72.12 219.53
  C 71.46 200.25 84.10 185.88 104.16 186.77
  Q 112.24 187.13 119.08 192.39
  A 0.56 0.55 24.0 0 0 119.97 192.05
  L 123.64 171.14
  Q 123.88 169.72 122.55 169.20
  C 111.18 164.77 96.93 165.09 85.60 168.02
  C 67.62 172.67 53.61 185.55 47.57 203.23
  C 43.18 216.09 41.79 230.40 49.24 241.80
  Q 57.16 253.92 72.01 256.51
  Q 85.58 258.88 102.23 254.99
  Q 105.44 254.23 108.45 252.53
  A 2.29 2.28 -9.8 0 0 109.57 250.95
  L 113.08 231.28
  A 0.55 0.55 0.0 0 0 112.25 230.72
  Q 100.48 238.06 87.11 236.29"
/>
<path stroke="#2c7353" vector-effect="non-scaling-stroke" d="
  M 170.92 167.26
  C 146.20 172.55 131.60 189.87 127.97 214.20
  C 125.18 232.93 131.73 249.42 151.04 255.32
  C 157.60 257.32 164.80 257.45 171.59 257.17
  C 200.70 255.95 220.22 234.68 223.45 206.41
  C 226.05 183.58 213.32 168.55 190.78 166.27
  Q 180.44 165.22 170.92 167.26"
/>
<path stroke="#2c7353" vector-effect="non-scaling-stroke" d="
  M 367.08 220.00
  A 0.69 0.68 -87.2 0 1 367.76 219.38
  L 422.98 219.41
  A 1.13 1.12 -84.4 0 0 424.08 218.50
  Q 425.43 211.67 426.34 205.34
  C 429.52 183.26 419.62 167.39 396.76 166.05
  Q 378.36 164.98 363.34 176.14
  C 349.92 186.12 343.11 200.33 340.94 216.82
  C 337.97 239.44 349.36 256.02 373.15 257.14
  C 385.68 257.73 398.10 256.66 409.42 251.55
  Q 410.78 250.93 411.02 249.39
  Q 412.32 241.08 414.11 232.23
  A 0.45 0.45 0.0 0 0 413.45 231.75
  Q 399.23 239.54 382.25 237.93
  C 371.88 236.95 366.10 230.53 367.08 220.00"
/>
<path stroke="#2c7353" vector-effect="non-scaling-stroke" d="
  M 473.58 179.97
  L 475.59 169.32
  A 1.05 1.05 0.0 0 0 474.55 168.07
  L 449.70 168.11
  A 1.12 1.11 4.9 0 0 448.60 169.03
  L 433.50 254.61
  Q 433.38 255.30 434.08 255.30
  L 460.02 255.29
  A 0.49 0.48 4.9 0 0 460.50 254.89
  Q 464.79 229.91 469.20 205.31
  C 471.01 195.27 478.84 186.19 489.56 186.70
  C 499.46 187.17 500.98 196.63 499.65 204.39
  Q 495.31 229.60 490.80 254.75
  A 0.47 0.47 0.0 0 0 491.26 255.30
  L 516.99 255.31
  Q 517.61 255.31 517.72 254.70
  Q 522.49 227.88 527.43 199.50
  C 530.03 184.56 527.33 168.56 509.24 166.24
  C 495.86 164.52 483.26 169.94 474.72 180.50
  Q 473.10 182.50 473.58 179.97"
/>
<path stroke="#2c7353" vector-effect="non-scaling-stroke" d="
  M 590.27 256.61
  C 616.42 252.28 632.33 233.63 635.96 207.73
  C 638.84 187.15 629.22 170.58 607.52 166.83
  Q 592.16 164.18 576.90 169.05
  C 560.21 174.37 547.99 187.08 542.98 203.83
  C 538.45 218.98 537.99 235.91 549.68 247.38
  C 556.52 254.10 566.30 256.87 575.98 257.22
  Q 584.67 257.54 590.27 256.61"
/>
<path stroke="#2c7353" vector-effect="non-scaling-stroke" d="
  M 685.38 179.86
  L 687.42 169.51
  A 1.19 1.19 0.0 0 0 686.25 168.09
  L 661.43 168.11
  Q 660.61 168.11 660.46 168.92
  Q 653.24 209.59 646.07 250.59
  Q 645.73 252.56 645.17 254.58
  A 0.57 0.56 -82.2 0 0 645.71 255.30
  L 671.71 255.29
  Q 672.24 255.29 672.33 254.77
  Q 676.42 231.26 680.78 206.74
  C 682.15 199.03 685.76 191.58 692.86 188.15
  C 698.34 185.50 707.43 186.00 709.55 193.01
  Q 711.03 197.91 710.07 203.36
  Q 705.62 228.63 701.03 254.72
  A 0.50 0.50 0.0 0 0 701.52 255.30
  L 727.31 255.30
  Q 727.95 255.30 728.06 254.67
  Q 732.10 231.31 736.20 208.60
  Q 737.31 202.43 739.04 198.64
  C 742.26 191.54 748.81 185.81 757.16 186.82
  C 766.03 187.89 766.93 196.60 765.69 203.94
  Q 761.42 229.07 756.74 254.94
  Q 756.67 255.29 757.03 255.29
  L 783.18 255.29
  A 0.75 0.74 -86.5 0 0 783.92 254.63
  Q 784.31 251.20 784.97 247.50
  Q 789.17 224.16 793.22 200.79
  C 796.04 184.52 794.25 167.29 773.49 166.06
  Q 753.35 164.86 739.61 181.15
  A 0.75 0.75 0.0 0 1 738.31 180.84
  C 734.99 166.72 719.63 163.95 707.59 167.13
  Q 695.24 170.38 686.50 180.41
  Q 684.92 182.23 685.38 179.86"
/>
<path stroke="#2c7353" vector-effect="non-scaling-stroke" d="
  M 805.35 254.74
  A 0.47 0.47 0.0 0 0 805.81 255.29
  L 831.89 255.24
  A 0.47 0.47 0.0 0 0 832.35 254.85
  L 847.53 168.63
  A 0.47 0.47 0.0 0 0 847.07 168.08
  L 821.04 168.12
  A 0.47 0.47 0.0 0 0 820.58 168.51
  L 805.35 254.74"
/>
<path stroke="#2c7353" vector-effect="non-scaling-stroke" d="
  M 901.35 199.57
  C 901.12 197.83 900.90 196.05 900.36 194.40
  Q 896.26 181.80 891.99 169.11
  A 1.52 1.51 80.5 0 0 890.56 168.08
  L 860.94 168.10
  Q 860.40 168.10 860.63 168.59
  L 880.19 211.49
  Q 880.36 211.87 880.09 212.19
  Q 863.16 232.03 846.03 251.90
  Q 844.89 253.22 843.53 254.65
  A 0.36 0.35 21.8 0 0 843.79 255.25
  L 873.67 255.26
  A 1.39 1.37 17.4 0 0 874.80 254.68
  L 895.82 224.77
  A 0.37 0.37 0.0 0 1 896.49 224.90
  Q 897.12 227.80 898.07 230.49
  Q 902.39 242.85 906.72 254.77
  A 0.77 0.76 -9.7 0 0 907.44 255.27
  L 937.32 255.24
  Q 938.02 255.24 937.73 254.60
  L 917.62 210.93
  A 1.00 0.99 -37.3 0 1 917.77 209.86
  L 952.89 168.92
  A 0.51 0.51 0.0 0 0 952.50 168.08
  L 924.99 168.12
  A 1.85 1.84 -72.7 0 0 923.47 168.92
  L 902.21 199.78
  A 0.47 0.47 0.0 0 1 901.35 199.57"
/>
<path stroke="#2c7353" vector-effect="non-scaling-stroke" d="
  M 275.31 189.75
  C 265.34 196.43 261.32 210.34 261.65 221.87
  C 261.91 230.80 267.02 236.68 276.24 236.66
  Q 284.07 236.64 289.84 231.00
  C 296.28 224.72 298.15 217.43 299.66 208.88
  C 300.90 201.85 301.03 194.77 295.43 189.93
  C 290.04 185.26 280.96 185.96 275.31 189.75"
/>
<path stroke="#2c7353" vector-effect="non-scaling-stroke" d="
  M 174.92 236.44
  C 190.38 234.83 195.19 217.23 196.11 204.43
  C 196.82 194.72 192.25 187.10 181.78 186.71
  C 162.37 185.98 155.05 204.02 155.06 220.97
  C 155.07 233.40 163.75 237.60 174.92 236.44"
/>
<path stroke="#2c7353" vector-effect="non-scaling-stroke" d="
  M 371.58 198.45
  Q 370.71 200.26 370.28 201.96
  Q 370.07 202.79 370.92 202.79
  L 401.06 202.80
  A 0.78 0.76 -84.5 0 0 401.81 202.17
  C 403.44 193.50 401.96 184.92 391.34 184.26
  C 382.24 183.69 375.29 190.78 371.58 198.45"
/>
<path stroke="#2c7353" vector-effect="non-scaling-stroke" d="
  M 604.98 221.68
  C 609.05 211.31 613.16 191.38 598.88 187.44
  Q 593.39 185.93 587.30 187.34
  C 571.65 190.96 566.54 210.70 568.03 224.12
  C 568.95 232.44 575.13 236.47 583.16 236.67
  Q 598.95 237.07 604.98 221.68"
/>
</g>
<g fill="#010001">
<path d="
  M 0.00 0.00
  L 1014.00 0.00
  L 1014.00 355.00
  L 0.00 355.00
  L 0.00 0.00
  Z
  M 844.21 78.57
  A 0.44 0.44 0.0 0 0 844.20 79.20
  L 863.50 98.44
  A 0.44 0.44 0.0 0 1 863.50 99.06
  L 845.25 117.26
  A 0.44 0.44 0.0 0 0 845.23 117.86
  L 855.10 128.87
  A 0.44 0.44 0.0 0 0 855.74 128.89
  L 885.56 99.08
  A 0.44 0.44 0.0 0 0 885.56 98.46
  L 855.59 68.48
  A 0.44 0.44 0.0 0 0 854.98 68.47
  L 844.21 78.57
  Z
  M 826.44 121.03
  A 0.32 0.32 0.0 0 1 826.44 120.57
  L 845.88 101.10
  A 0.32 0.32 0.0 0 0 845.87 100.64
  L 834.91 90.42
  A 0.32 0.32 0.0 0 0 834.46 90.43
  L 804.37 120.54
  A 0.32 0.32 0.0 0 0 804.37 121.00
  L 834.37 150.99
  A 0.32 0.32 0.0 0 0 834.84 150.98
  L 844.82 139.83
  A 0.32 0.32 0.0 0 0 844.81 139.39
  L 826.44 121.03
  Z
  M 292.93 244.44
  L 290.85 254.79
  A 0.43 0.43 0.0 0 0 291.27 255.30
  L 317.54 255.29
  Q 317.89 255.29 317.95 254.94
  L 340.49 127.05
  A 0.70 0.70 0.0 0 0 339.80 126.23
  L 314.20 126.23
  A 0.69 0.68 -84.9 0 0 313.53 126.80
  L 304.95 175.75
  Q 304.37 179.05 303.09 175.96
  Q 300.29 169.25 291.30 166.96
  C 280.97 164.34 268.78 166.86 260.13 172.43
  C 240.26 185.22 231.92 209.86 234.06 232.56
  C 234.78 240.21 239.42 248.73 246.46 253.09
  C 252.63 256.92 259.31 257.60 266.50 257.18
  C 277.16 256.57 285.04 251.67 292.28 244.11
  Q 293.18 243.16 292.93 244.44
  Z
  M 87.11 236.29
  C 78.22 235.11 72.43 228.36 72.12 219.53
  C 71.46 200.25 84.10 185.88 104.16 186.77
  Q 112.24 187.13 119.08 192.39
  A 0.56 0.55 24.0 0 0 119.97 192.05
  L 123.64 171.14
  Q 123.88 169.72 122.55 169.20
  C 111.18 164.77 96.93 165.09 85.60 168.02
  C 67.62 172.67 53.61 185.55 47.57 203.23
  C 43.18 216.09 41.79 230.40 49.24 241.80
  Q 57.16 253.92 72.01 256.51
  Q 85.58 258.88 102.23 254.99
  Q 105.44 254.23 108.45 252.53
  A 2.29 2.28 -9.8 0 0 109.57 250.95
  L 113.08 231.28
  A 0.55 0.55 0.0 0 0 112.25 230.72
  Q 100.48 238.06 87.11 236.29
  Z
  M 170.92 167.26
  C 146.20 172.55 131.60 189.87 127.97 214.20
  C 125.18 232.93 131.73 249.42 151.04 255.32
  C 157.60 257.32 164.80 257.45 171.59 257.17
  C 200.70 255.95 220.22 234.68 223.45 206.41
  C 226.05 183.58 213.32 168.55 190.78 166.27
  Q 180.44 165.22 170.92 167.26
  Z
  M 367.08 220.00
  A 0.69 0.68 -87.2 0 1 367.76 219.38
  L 422.98 219.41
  A 1.13 1.12 -84.4 0 0 424.08 218.50
  Q 425.43 211.67 426.34 205.34
  C 429.52 183.26 419.62 167.39 396.76 166.05
  Q 378.36 164.98 363.34 176.14
  C 349.92 186.12 343.11 200.33 340.94 216.82
  C 337.97 239.44 349.36 256.02 373.15 257.14
  C 385.68 257.73 398.10 256.66 409.42 251.55
  Q 410.78 250.93 411.02 249.39
  Q 412.32 241.08 414.11 232.23
  A 0.45 0.45 0.0 0 0 413.45 231.75
  Q 399.23 239.54 382.25 237.93
  C 371.88 236.95 366.10 230.53 367.08 220.00
  Z
  M 473.58 179.97
  L 475.59 169.32
  A 1.05 1.05 0.0 0 0 474.55 168.07
  L 449.70 168.11
  A 1.12 1.11 4.9 0 0 448.60 169.03
  L 433.50 254.61
  Q 433.38 255.30 434.08 255.30
  L 460.02 255.29
  A 0.49 0.48 4.9 0 0 460.50 254.89
  Q 464.79 229.91 469.20 205.31
  C 471.01 195.27 478.84 186.19 489.56 186.70
  C 499.46 187.17 500.98 196.63 499.65 204.39
  Q 495.31 229.60 490.80 254.75
  A 0.47 0.47 0.0 0 0 491.26 255.30
  L 516.99 255.31
  Q 517.61 255.31 517.72 254.70
  Q 522.49 227.88 527.43 199.50
  C 530.03 184.56 527.33 168.56 509.24 166.24
  C 495.86 164.52 483.26 169.94 474.72 180.50
  Q 473.10 182.50 473.58 179.97
  Z
  M 590.27 256.61
  C 616.42 252.28 632.33 233.63 635.96 207.73
  C 638.84 187.15 629.22 170.58 607.52 166.83
  Q 592.16 164.18 576.90 169.05
  C 560.21 174.37 547.99 187.08 542.98 203.83
  C 538.45 218.98 537.99 235.91 549.68 247.38
  C 556.52 254.10 566.30 256.87 575.98 257.22
  Q 584.67 257.54 590.27 256.61
  Z
  M 685.38 179.86
  L 687.42 169.51
  A 1.19 1.19 0.0 0 0 686.25 168.09
  L 661.43 168.11
  Q 660.61 168.11 660.46 168.92
  Q 653.24 209.59 646.07 250.59
  Q 645.73 252.56 645.17 254.58
  A 0.57 0.56 -82.2 0 0 645.71 255.30
  L 671.71 255.29
  Q 672.24 255.29 672.33 254.77
  Q 676.42 231.26 680.78 206.74
  C 682.15 199.03 685.76 191.58 692.86 188.15
  C 698.34 185.50 707.43 186.00 709.55 193.01
  Q 711.03 197.91 710.07 203.36
  Q 705.62 228.63 701.03 254.72
  A 0.50 0.50 0.0 0 0 701.52 255.30
  L 727.31 255.30
  Q 727.95 255.30 728.06 254.67
  Q 732.10 231.31 736.20 208.60
  Q 737.31 202.43 739.04 198.64
  C 742.26 191.54 748.81 185.81 757.16 186.82
  C 766.03 187.89 766.93 196.60 765.69 203.94
  Q 761.42 229.07 756.74 254.94
  Q 756.67 255.29 757.03 255.29
  L 783.18 255.29
  A 0.75 0.74 -86.5 0 0 783.92 254.63
  Q 784.31 251.20 784.97 247.50
  Q 789.17 224.16 793.22 200.79
  C 796.04 184.52 794.25 167.29 773.49 166.06
  Q 753.35 164.86 739.61 181.15
  A 0.75 0.75 0.0 0 1 738.31 180.84
  C 734.99 166.72 719.63 163.95 707.59 167.13
  Q 695.24 170.38 686.50 180.41
  Q 684.92 182.23 685.38 179.86
  Z
  M 805.35 254.74
  A 0.47 0.47 0.0 0 0 805.81 255.29
  L 831.89 255.24
  A 0.47 0.47 0.0 0 0 832.35 254.85
  L 847.53 168.63
  A 0.47 0.47 0.0 0 0 847.07 168.08
  L 821.04 168.12
  A 0.47 0.47 0.0 0 0 820.58 168.51
  L 805.35 254.74
  Z
  M 901.35 199.57
  C 901.12 197.83 900.90 196.05 900.36 194.40
  Q 896.26 181.80 891.99 169.11
  A 1.52 1.51 80.5 0 0 890.56 168.08
  L 860.94 168.10
  Q 860.40 168.10 860.63 168.59
  L 880.19 211.49
  Q 880.36 211.87 880.09 212.19
  Q 863.16 232.03 846.03 251.90
  Q 844.89 253.22 843.53 254.65
  A 0.36 0.35 21.8 0 0 843.79 255.25
  L 873.67 255.26
  A 1.39 1.37 17.4 0 0 874.80 254.68
  L 895.82 224.77
  A 0.37 0.37 0.0 0 1 896.49 224.90
  Q 897.12 227.80 898.07 230.49
  Q 902.39 242.85 906.72 254.77
  A 0.77 0.76 -9.7 0 0 907.44 255.27
  L 937.32 255.24
  Q 938.02 255.24 937.73 254.60
  L 917.62 210.93
  A 1.00 0.99 -37.3 0 1 917.77 209.86
  L 952.89 168.92
  A 0.51 0.51 0.0 0 0 952.50 168.08
  L 924.99 168.12
  A 1.85 1.84 -72.7 0 0 923.47 168.92
  L 902.21 199.78
  A 0.47 0.47 0.0 0 1 901.35 199.57
  Z"
/>
<path d="
  M 371.58 198.45
  C 375.29 190.78 382.24 183.69 391.34 184.26
  C 401.96 184.92 403.44 193.50 401.81 202.17
  A 0.78 0.76 -84.5 0 1 401.06 202.80
  L 370.92 202.79
  Q 370.07 202.79 370.28 201.96
  Q 370.71 200.26 371.58 198.45
  Z"
/>
<path d="
  M 196.11 204.43
  C 195.19 217.23 190.38 234.83 174.92 236.44
  C 163.75 237.60 155.07 233.40 155.06 220.97
  C 155.05 204.02 162.37 185.98 181.78 186.71
  C 192.25 187.10 196.82 194.72 196.11 204.43
  Z"
/>
<path d="
  M 261.65 221.87
  C 261.32 210.34 265.34 196.43 275.31 189.75
  C 280.96 185.96 290.04 185.26 295.43 189.93
  C 301.03 194.77 300.90 201.85 299.66 208.88
  C 298.15 217.43 296.28 224.72 289.84 231.00
  Q 284.07 236.64 276.24 236.66
  C 267.02 236.68 261.91 230.80 261.65 221.87
  Z"
/>
<path d="
  M 604.98 221.68
  Q 598.95 237.07 583.16 236.67
  C 575.13 236.47 568.95 232.44 568.03 224.12
  C 566.54 210.70 571.65 190.96 587.30 187.34
  Q 593.39 185.93 598.88 187.44
  C 613.16 191.38 609.05 211.31 604.98 221.68
  Z"
/>
</g>
<g fill="#56e6a5">
<path d="
  M 844.21 78.57
  L 854.98 68.47
  A 0.44 0.44 0.0 0 1 855.59 68.48
  L 885.56 98.46
  A 0.44 0.44 0.0 0 1 885.56 99.08
  L 855.74 128.89
  A 0.44 0.44 0.0 0 1 855.10 128.87
  L 845.23 117.86
  A 0.44 0.44 0.0 0 1 845.25 117.26
  L 863.50 99.06
  A 0.44 0.44 0.0 0 0 863.50 98.44
  L 844.20 79.20
  A 0.44 0.44 0.0 0 1 844.21 78.57
  Z"
/>
<path d="
  M 826.44 121.03
  L 844.81 139.39
  A 0.32 0.32 0.0 0 1 844.82 139.83
  L 834.84 150.98
  A 0.32 0.32 0.0 0 1 834.37 150.99
  L 804.37 121.00
  A 0.32 0.32 0.0 0 1 804.37 120.54
  L 834.46 90.43
  A 0.32 0.32 0.0 0 1 834.91 90.42
  L 845.87 100.64
  A 0.32 0.32 0.0 0 1 845.88 101.10
  L 826.44 120.57
  A 0.32 0.32 0.0 0 0 826.44 121.03
  Z"
/>
<path d="
  M 292.28 244.11
  C 285.04 251.67 277.16 256.57 266.50 257.18
  C 259.31 257.60 252.63 256.92 246.46 253.09
  C 239.42 248.73 234.78 240.21 234.06 232.56
  C 231.92 209.86 240.26 185.22 260.13 172.43
  C 268.78 166.86 280.97 164.34 291.30 166.96
  Q 300.29 169.25 303.09 175.96
  Q 304.37 179.05 304.95 175.75
  L 313.53 126.80
  A 0.69 0.68 -84.9 0 1 314.20 126.23
  L 339.80 126.23
  A 0.70 0.70 0.0 0 1 340.49 127.05
  L 317.95 254.94
  Q 317.89 255.29 317.54 255.29
  L 291.27 255.30
  A 0.43 0.43 0.0 0 1 290.85 254.79
  L 292.93 244.44
  Q 293.18 243.16 292.28 244.11
  Z
  M 275.31 189.75
  C 265.34 196.43 261.32 210.34 261.65 221.87
  C 261.91 230.80 267.02 236.68 276.24 236.66
  Q 284.07 236.64 289.84 231.00
  C 296.28 224.72 298.15 217.43 299.66 208.88
  C 300.90 201.85 301.03 194.77 295.43 189.93
  C 290.04 185.26 280.96 185.96 275.31 189.75
  Z"
/>
<path d="
  M 72.12 219.53
  C 72.43 228.36 78.22 235.11 87.11 236.29
  Q 100.48 238.06 112.25 230.72
  A 0.55 0.55 0.0 0 1 113.08 231.28
  L 109.57 250.95
  A 2.29 2.28 -9.8 0 1 108.45 252.53
  Q 105.44 254.23 102.23 254.99
  Q 85.58 258.88 72.01 256.51
  Q 57.16 253.92 49.24 241.80
  C 41.79 230.40 43.18 216.09 47.57 203.23
  C 53.61 185.55 67.62 172.67 85.60 168.02
  C 96.93 165.09 111.18 164.77 122.55 169.20
  Q 123.88 169.72 123.64 171.14
  L 119.97 192.05
  A 0.56 0.55 24.0 0 1 119.08 192.39
  Q 112.24 187.13 104.16 186.77
  C 84.10 185.88 71.46 200.25 72.12 219.53
  Z"
/>
<path d="
  M 127.97 214.20
  C 131.60 189.87 146.20 172.55 170.92 167.26
  Q 180.44 165.22 190.78 166.27
  C 213.32 168.55 226.05 183.58 223.45 206.41
  C 220.22 234.68 200.70 255.95 171.59 257.17
  C 164.80 257.45 157.60 257.32 151.04 255.32
  C 131.73 249.42 125.18 232.93 127.97 214.20
  Z
  M 174.92 236.44
  C 190.38 234.83 195.19 217.23 196.11 204.43
  C 196.82 194.72 192.25 187.10 181.78 186.71
  C 162.37 185.98 155.05 204.02 155.06 220.97
  C 155.07 233.40 163.75 237.60 174.92 236.44
  Z"
/>
<path d="
  M 367.08 220.00
  C 366.10 230.53 371.88 236.95 382.25 237.93
  Q 399.23 239.54 413.45 231.75
  A 0.45 0.45 0.0 0 1 414.11 232.23
  Q 412.32 241.08 411.02 249.39
  Q 410.78 250.93 409.42 251.55
  C 398.10 256.66 385.68 257.73 373.15 257.14
  C 349.36 256.02 337.97 239.44 340.94 216.82
  C 343.11 200.33 349.92 186.12 363.34 176.14
  Q 378.36 164.98 396.76 166.05
  C 419.62 167.39 429.52 183.26 426.34 205.34
  Q 425.43 211.67 424.08 218.50
  A 1.13 1.12 -84.4 0 1 422.98 219.41
  L 367.76 219.38
  A 0.69 0.68 -87.2 0 0 367.08 220.00
  Z
  M 371.58 198.45
  Q 370.71 200.26 370.28 201.96
  Q 370.07 202.79 370.92 202.79
  L 401.06 202.80
  A 0.78 0.76 -84.5 0 0 401.81 202.17
  C 403.44 193.50 401.96 184.92 391.34 184.26
  C 382.24 183.69 375.29 190.78 371.58 198.45
  Z"
/>
<path d="
  M 473.58 179.97
  Q 473.10 182.50 474.72 180.50
  C 483.26 169.94 495.86 164.52 509.24 166.24
  C 527.33 168.56 530.03 184.56 527.43 199.50
  Q 522.49 227.88 517.72 254.70
  Q 517.61 255.31 516.99 255.31
  L 491.26 255.30
  A 0.47 0.47 0.0 0 1 490.80 254.75
  Q 495.31 229.60 499.65 204.39
  C 500.98 196.63 499.46 187.17 489.56 186.70
  C 478.84 186.19 471.01 195.27 469.20 205.31
  Q 464.79 229.91 460.50 254.89
  A 0.49 0.48 4.9 0 1 460.02 255.29
  L 434.08 255.30
  Q 433.38 255.30 433.50 254.61
  L 448.60 169.03
  A 1.12 1.11 4.9 0 1 449.70 168.11
  L 474.55 168.07
  A 1.05 1.05 0.0 0 1 475.59 169.32
  L 473.58 179.97
  Z"
/>
<path d="
  M 635.96 207.73
  C 632.33 233.63 616.42 252.28 590.27 256.61
  Q 584.67 257.54 575.98 257.22
  C 566.30 256.87 556.52 254.10 549.68 247.38
  C 537.99 235.91 538.45 218.98 542.98 203.83
  C 547.99 187.08 560.21 174.37 576.90 169.05
  Q 592.16 164.18 607.52 166.83
  C 629.22 170.58 638.84 187.15 635.96 207.73
  Z
  M 604.98 221.68
  C 609.05 211.31 613.16 191.38 598.88 187.44
  Q 593.39 185.93 587.30 187.34
  C 571.65 190.96 566.54 210.70 568.03 224.12
  C 568.95 232.44 575.13 236.47 583.16 236.67
  Q 598.95 237.07 604.98 221.68
  Z"
/>
<path d="
  M 685.38 179.86
  Q 684.92 182.23 686.50 180.41
  Q 695.24 170.38 707.59 167.13
  C 719.63 163.95 734.99 166.72 738.31 180.84
  A 0.75 0.75 0.0 0 0 739.61 181.15
  Q 753.35 164.86 773.49 166.06
  C 794.25 167.29 796.04 184.52 793.22 200.79
  Q 789.17 224.16 784.97 247.50
  Q 784.31 251.20 783.92 254.63
  A 0.75 0.74 -86.5 0 1 783.18 255.29
  L 757.03 255.29
  Q 756.67 255.29 756.74 254.94
  Q 761.42 229.07 765.69 203.94
  C 766.93 196.60 766.03 187.89 757.16 186.82
  C 748.81 185.81 742.26 191.54 739.04 198.64
  Q 737.31 202.43 736.20 208.60
  Q 732.10 231.31 728.06 254.67
  Q 727.95 255.30 727.31 255.30
  L 701.52 255.30
  A 0.50 0.50 0.0 0 1 701.03 254.72
  Q 705.62 228.63 710.07 203.36
  Q 711.03 197.91 709.55 193.01
  C 707.43 186.00 698.34 185.50 692.86 188.15
  C 685.76 191.58 682.15 199.03 680.78 206.74
  Q 676.42 231.26 672.33 254.77
  Q 672.24 255.29 671.71 255.29
  L 645.71 255.30
  A 0.57 0.56 -82.2 0 1 645.17 254.58
  Q 645.73 252.56 646.07 250.59
  Q 653.24 209.59 660.46 168.92
  Q 660.61 168.11 661.43 168.11
  L 686.25 168.09
  A 1.19 1.19 0.0 0 1 687.42 169.51
  L 685.38 179.86
  Z"
/>
<path d="
  M 805.35 254.74
  L 820.58 168.51
  A 0.47 0.47 0.0 0 1 821.04 168.12
  L 847.07 168.08
  A 0.47 0.47 0.0 0 1 847.53 168.63
  L 832.35 254.85
  A 0.47 0.47 0.0 0 1 831.89 255.24
  L 805.81 255.29
  A 0.47 0.47 0.0 0 1 805.35 254.74
  Z"
/>
<path d="
  M 901.35 199.57
  A 0.47 0.47 0.0 0 0 902.21 199.78
  L 923.47 168.92
  A 1.85 1.84 -72.7 0 1 924.99 168.12
  L 952.50 168.08
  A 0.51 0.51 0.0 0 1 952.89 168.92
  L 917.77 209.86
  A 1.00 0.99 -37.3 0 0 917.62 210.93
  L 937.73 254.60
  Q 938.02 255.24 937.32 255.24
  L 907.44 255.27
  A 0.77 0.76 -9.7 0 1 906.72 254.77
  Q 902.39 242.85 898.07 230.49
  Q 897.12 227.80 896.49 224.90
  A 0.37 0.37 0.0 0 0 895.82 224.77
  L 874.80 254.68
  A 1.39 1.37 17.4 0 1 873.67 255.26
  L 843.79 255.25
  A 0.36 0.35 21.8 0 1 843.53 254.65
  Q 844.89 253.22 846.03 251.90
  Q 863.16 232.03 880.09 212.19
  Q 880.36 211.87 880.19 211.49
  L 860.63 168.59
  Q 860.40 168.10 860.94 168.10
  L 890.56 168.08
  A 1.52 1.51 80.5 0 1 891.99 169.11
  Q 896.26 181.80 900.36 194.40
  C 900.90 196.05 901.12 197.83 901.35 199.57
  Z"
/>
</g>
</svg>
