<svg width="31" height="31" viewBox="0 0 31 31" xmlns="http://www.w3.org/2000/svg">
    <defs>
        <linearGradient x1="50%" y1="0%" x2="50%" y2="100%" id="a">
            <stop stop-color="#E1CDFF" offset="0%"/>
            <stop stop-color="#FFF" offset="100%"/>
        </linearGradient>
    </defs>
    <g fill="none" fill-rule="evenodd">
        <path d="M.014.5h30v30h-30z"/>
        <g stroke="#520FB7" stroke-linecap="round" stroke-linejoin="round" stroke-width="1.5">
            <path d="M17.15 25.819h8.864"/>
            <path d="M11.953.971a2.744 2.744 0 0 1 3.81-.37l2.117 1.646c1.271.768 1.666 2.401.88 3.647C18.72 5.961 7.103 20.49 7.103 20.49a2.077 2.077 0 0 1-1.6.773l-4.448.056-1.002-4.242a1.99 1.99 0 0 1 .387-1.705L11.953.972z" fill-opacity=".6" fill="url(#a)" transform="translate(4.014 4.5)"/>
            <path d="m13.817 8.168 6.664 5.117"/>
        </g>
    </g>
</svg>
