<?xml version="1.0" encoding="utf-8"?>
<svg xmlns="http://www.w3.org/2000/svg" xmlns:xlink="http://www.w3.org/1999/xlink" width="20px" height="16px" viewBox="0 0 20 16" version="1.1">
    <title>Rectangle</title>
    <defs>
        <linearGradient x1="2.78181552%" y1="50%" x2="98.2485602%" y2="50%" id="linearGradient-1">
            <stop stop-color="#FF5600" offset="0%"/>
            <stop stop-color="#FF9300" offset="100%"/>
        </linearGradient>
    </defs>
    <g id="Page-1" stroke="none" stroke-width="1" fill="none" fill-rule="evenodd">
        <g id="How-it-works" transform="translate(-229.000000, -1109.000000)" fill="url(#linearGradient-1)">
            <g id="Group-36" transform="translate(199.000000, 1081.000000)">
                <g id="Group-39" transform="translate(30.000000, 20.000000)">
                    <path d="M2.92332482,8.52481765 L10.1,10.0790649 L10.1,10.0790649 L17.2766752,8.52481765 C18.3562183,8.29102181 19.4208898,8.97663542 19.6546857,10.0561785 C19.6848092,10.1952726 19.7,10.3371847 19.7,10.4795033 L19.7,21.4186567 C19.7,22.5232262 18.8045695,23.4186567 17.7,23.4186567 C17.5314841,23.4186567 17.3636439,23.3973588 17.2004689,23.3552694 L10.1,21.5237699 L10.1,21.5237699 L2.9995311,23.3552694 C1.92996945,23.6311528 0.839270726,22.9877494 0.563387318,21.9181878 C0.52129786,21.7550128 0.5,21.5871726 0.5,21.4186567 L0.5,10.4795033 C0.5,9.37493383 1.3954305,8.47950333 2.5,8.47950333 C2.64231862,8.47950333 2.78423073,8.49469415 2.92332482,8.52481765 Z" id="Rectangle"/>
                </g>
            </g>
        </g>
    </g>
</svg>