<?xml version="1.0" encoding="UTF-8"?>
<svg xmlns:xlink="http://www.w3.org/1999/xlink" width="16px" height="16px" viewBox="0 0 16 16" version="1.1" xmlns="http://www.w3.org/2000/svg">
    <title>Group 3</title>
    <g id="Final" stroke="none" stroke-width="1" fill="none" fill-rule="evenodd">
        <g id="Track-page_User_Post-login" transform="translate(-323.000000, -1962.000000)">
            <g id="Group-3" transform="translate(323.235367, 1962.853700)">
                <path d="M12.7709022,10.5882001 C13.9331082,10.5882001 14.8750495,9.63659475 14.8750495,8.46686643 L14.8750495,6.53295887 C14.8750495,5.36148357 13.9311283,4.41162524 12.7709022,4.41162524 L12.6043424,4.41162524 C11.4421364,4.41162524 10.5001951,3.45977036 10.5001951,2.28979248 L10.5001951,2.12183277 C10.5001951,0.949858328 9.55652138,0 8.39654273,0 L6.47875426,0 C5.31679569,0 4.37510191,0.951854877 4.37510191,2.12183277 L4.37510191,2.28979248 C4.37510191,3.46176691 3.43118072,4.41162524 2.27095458,4.41162524 L2.10414733,4.41162524 C0.942188763,4.41162524 0,5.36323055 0,6.53295887 L0,8.46686643 C0,9.6385913 0.943921183,10.5882001 2.10414733,10.5882001 L2.27095458,10.5882001 C3.43291314,10.5882001 4.37510191,11.5400549 4.37510191,12.7100328 L4.37510191,12.8779925 C4.37510191,14.049967 5.3187756,15.0000749 6.47875426,15.0000749 L8.39654273,15.0000749 C9.5582538,15.0000749 10.5001951,14.04822 10.5001951,12.8779925 L10.5001951,12.7100328 C10.5001951,11.538308 11.4441163,10.5882001 12.6043424,10.5882001 L12.7709022,10.5882001 Z" id="Fill-1" fill="#520FB7"></path>
                <circle id="Oval" fill="#FBC72E" cx="7.58708952" cy="7.73334002" r="2.7018163"></circle>
            </g>
        </g>
    </g>
</svg>
