<?xml version="1.0" encoding="utf-8"?>
<svg xmlns="http://www.w3.org/2000/svg" xmlns:xlink="http://www.w3.org/1999/xlink" width="40px" height="40px" viewBox="0 0 40 40" version="1.1">
    <title>Group 50</title>
    <defs>
        <linearGradient x1="50%" y1="-0.000170136456%" x2="50%" y2="100.000084%" id="linearGradient-1">
            <stop stop-color="#F7E830" offset="0%"/>
            <stop stop-color="#FDCB06" offset="100%"/>
        </linearGradient>
        <radialGradient cx="49.5782321%" cy="353.559807%" fx="49.5782321%" fy="353.559807%" r="437.812754%" gradientTransform="translate(0.495782,3.535598),scale(0.153572,1.000000),translate(-0.495782,-3.535598)" id="radialGradient-2">
            <stop stop-color="#F29405" offset="59.6%"/>
            <stop stop-color="#F7D01E" offset="73.6%"/>
            <stop stop-color="#FDCB06" offset="100%"/>
        </radialGradient>
        <linearGradient x1="49.8901185%" y1="-0.0266608552%" x2="50.3197039%" y2="98.0268923%" id="linearGradient-3">
            <stop stop-color="#FADA1C" offset="0%"/>
            <stop stop-color="#FDCB06" offset="100%"/>
        </linearGradient>
        <linearGradient x1="50.1051039%" y1="-0.0244772417%" x2="49.6755313%" y2="98.0269354%" id="linearGradient-4">
            <stop stop-color="#FADA1C" offset="0%"/>
            <stop stop-color="#FDCB06" offset="100%"/>
        </linearGradient>
        <path d="M12.8370866,0.541743858 C12.8057022,0.482898038 12.8018183,0.412283055 12.8018183,0.345591126 L12.7703947,0.349514181 C12.7233573,0.176899777 12.5782435,0.0121314828 12.3898976,0.0042853735 C12.2486284,-0.00748379038 12.072091,-0.00356073575 11.9897853,0.129823122 C11.8328631,0.341668072 11.9073227,0.612358841 11.8995158,0.851665173 C11.8995158,0.867357392 11.9034781,0.894818774 11.9034781,0.910510993 C11.9034781,1.07135623 11.8838628,1.22827842 11.8564014,1.3852006 C11.8328631,1.43227726 11.8211332,1.48327697 11.8211332,1.53819973 C11.7544805,1.90696687 11.6210181,2.27181095 11.4406361,2.60527059 C11.4053286,2.65234725 11.3777888,2.70334696 11.366098,2.75826972 C11.2484064,2.96226856 11.1071764,3.15057519 10.9620234,3.33888181 C10.9384459,3.35849708 10.9188306,3.38203541 10.8992153,3.40557374 C10.7971767,3.53111148 10.6874096,3.63703396 10.5735626,3.74687949 C10.5461404,3.76257171 10.5265251,3.78218698 10.5029476,3.7978792 C10.3696029,3.92734 10.2204876,4.0489547 10.0596424,4.14703106 C10.0400271,4.15880023 10.0204118,4.17449244 9.99683429,4.19018466 C8.99249307,4.85318089 7.77250155,5.12779472 6.58377676,5.13956388 C5.57559095,5.17094832 4.55944134,4.95518031 3.64929267,4.51972125 C3.63367891,4.51187514 3.59444837,4.49618292 3.57867769,4.48833681 C3.42571779,4.40595267 3.2687956,4.33533768 3.1275264,4.23333826 C3.09614197,4.21764604 3.06475753,4.19803077 3.02945004,4.18233855 C2.88429702,4.09603135 2.74699011,4.00187804 2.6175293,3.89203251 C2.5743757,3.85280196 2.52729905,3.82141753 2.48022239,3.78611004 C2.33899242,3.67234145 2.1938394,3.55072676 2.07230317,3.41341985 C2.04091873,3.37811235 2.00945584,3.34672792 1.97814986,3.31534348 C1.55061537,2.87203831 1.21715572,2.33065677 1.04061826,1.74219857 C0.871848454,1.27535507 0.895465243,0.765357971 0.87584997,0.274976143 C0.734541542,0.0592081383 0.436467852,-0.0624065552 0.201084574,0.0709773022 C0.103008208,0.141592286 0.0912390443,0.271053088 0.0167010063,0.361283345 C-0.104913687,1.65589137 0.448237015,2.94657635 1.33092431,3.88026335 C1.33092431,3.91164778 1.34661653,3.93126306 1.37415637,3.94303222 C1.53107855,4.08818524 1.68399922,4.23726132 1.84092141,4.37849128 C1.86838279,4.40595267 1.89976723,4.43341405 1.93507472,4.45695238 C2.0919969,4.58641318 2.26068825,4.70410482 2.42545655,4.82571951 C2.45684099,4.84925784 2.48822542,4.86887311 2.52353291,4.88848839 C2.73930092,5.01402613 2.9432213,5.16310221 3.17475998,5.24940941 C3.1904522,5.26117858 3.21791358,5.28079385 3.2336058,5.28863996 C3.97898618,5.64563793 4.78321238,5.88886732 5.60705385,5.96732841 C5.69728411,5.96732841 5.78751437,5.97517452 5.87774462,5.99478979 C6.27005008,6.01832812 6.66235555,6.00655896 7.05466101,5.99871285 C8.26680643,5.89279037 9.51833932,5.59856127 10.5304874,4.88456533 L10.5422566,4.90025755 C10.573641,4.87279617 10.6011024,4.84925784 10.6324868,4.82571951 C10.7934105,4.70802787 10.9503327,4.58249013 11.1072549,4.45302932 C11.1424839,4.42556794 11.1817145,4.3941835 11.2171004,4.35887601 C11.3896756,4.17056939 11.5897906,3.99795499 11.7349436,3.78218698 L11.758482,3.79395614 C11.7702511,3.77434087 11.7898664,3.73511033 11.801714,3.71549505 C11.9350194,3.53503454 12.0567126,3.34672792 12.1744042,3.1584213 C12.1821719,3.14665213 12.2017871,3.12703686 12.2096333,3.11526769 L12.1940195,3.09957548 C12.2057887,3.08388326 12.23325,3.05249882 12.2450192,3.0368066 C12.4607872,2.59742448 12.6529384,2.13842709 12.7197088,1.65196832 C12.7471702,1.64019915 12.7629016,1.61666083 12.7629016,1.58919944 C12.7668639,1.43227726 12.8217475,1.28320118 12.8060945,1.126279 C12.8409704,0.934049321 12.8449327,0.737896589 12.8370866,0.541743858 L12.8370866,0.541743858 Z" id="path-5"/>
    </defs>
    <g id="Page-1" stroke="none" stroke-width="1" fill="none" fill-rule="evenodd">
        <g id="Group-50">
            <circle id="Oval" cx="20" cy="20" r="20"/>
            <g id="flipkart-(1)" transform="translate(6.000000, 6.000000)">
                <path d="M27.9644607,4.80736013 C27.9526915,4.76812958 27.9408439,4.72889903 27.9252302,4.68966849 C18.6315137,4.69359154 9.34172038,4.68966849 0.0519270238,4.69359154 C0.028388696,4.72105292 0.0126964775,4.74851431 0.0087734229,4.7838218 C0.0087734229,11.9904732 0.0087734229,19.1931622 0.00477190718,26.3998528 C0.0636177266,26.7842729 0.275462677,27.1334248 0.558001071,27.3963087 C0.569770235,27.4002317 0.597231617,27.4040371 0.609000781,27.4080386 C0.754153802,27.5609593 0.962075698,27.635615 1.15822843,27.7061908 C1.30338145,27.6983839 1.44461142,27.7611135 1.58976444,27.7454213 L13.123545,27.7454213 C13.2333906,27.7414983 13.3470807,27.7611135 13.4530032,27.7179992 C13.4570047,27.7023854 13.4608493,27.6748456 13.4647723,27.6591533 C13.4687739,27.6395381 13.4726184,27.5963845 13.4765807,27.5728854 C13.7237724,26.1920094 13.9630003,24.8071319 14.2259234,23.4262559 L14.2494617,23.2497184 C13.1824301,23.2457169 12.111397,23.2497184 11.0443653,23.2457169 C10.7854045,23.23791 10.5187152,23.2457169 10.2597544,23.2142932 C9.81648846,23.1946779 9.36926023,23.2103702 8.92595506,23.1672558 C8.37672741,23.1672558 7.83142281,23.1162168 7.28219517,23.1162168 C6.85065916,23.0730632 6.41520009,23.0887947 5.97974103,23.0691794 C5.69735956,23.0339504 5.40697505,23.0495641 5.12067053,23.0377558 C4.65382703,22.9867953 4.17913742,23.022142 3.71229391,22.9711031 C3.21798903,22.9751046 2.72368415,22.9318725 2.22937926,22.9200641 C2.23330232,22.9161411 2.23722537,22.9004488 2.23722537,22.8965258 C2.40199367,22.9004488 2.56283891,22.8887189 2.7276072,22.8847959 C3.09245128,22.83768 3.46121842,22.8691036 3.8260625,22.8180647 C4.2065988,22.8180647 4.58321204,22.7671042 4.96374834,22.7671042 C5.30113104,22.7199883 5.64243679,22.7474889 5.97974103,22.7003731 C6.37604801,22.7003731 6.76435195,22.6494126 7.16065893,22.6454503 C7.48627247,22.6022967 7.81580906,22.625835 8.14142259,22.5826814 C8.52195889,22.5866045 8.89857213,22.5277587 9.27910843,22.5317209 C9.65179862,22.4884889 10.0322565,22.5002188 10.4049467,22.4609883 C10.3697176,22.3159529 10.3421778,22.1707607 10.3108718,22.0255292 C10.2834104,21.9353382 10.1735649,21.9549534 10.1029499,21.9431451 C9.25164705,21.8214519 8.40426725,21.6999549 7.55688745,21.5822633 C7.61181022,21.5390312 7.68634825,21.5586465 7.74911713,21.5508396 C8.40819031,21.4998006 9.06334043,21.4409548 9.72241361,21.3939174 C9.87148968,21.3861105 10.0166427,21.3586099 10.1657188,21.3546869 C10.0990269,21.1507272 10.0597963,20.9270739 9.96956605,20.7388065 C8.5612679,20.5230385 7.15281282,20.3308088 5.74835927,20.0993094 C6.11320335,20.0404636 6.48197048,20.0130414 6.84681456,19.9738109 L6.878199,19.9620025 C8.04334622,19.8403093 9.2124165,19.7030024 10.3775637,19.5893123 C11.8564769,19.5815054 13.3316239,19.5853108 14.8106155,19.5893123 C14.8576137,19.5815054 14.9400763,19.604926 14.9479224,19.5382733 C15.0695371,18.9027777 15.1872287,18.2672821 15.3087649,17.6316688 C15.4774563,16.74906 15.744224,15.8781026 16.1561447,15.0738764 C16.8034487,13.7792684 17.827366,12.6808131 19.0748189,11.9511641 C20.2399661,11.2685526 21.5895754,10.939016 22.9312601,10.8762472 C23.3667191,10.8370166 23.8061013,10.8487858 24.2376373,10.9037086 C24.5200972,10.9704005 24.8104032,11.0488616 25.0340174,11.2410913 C25.2184009,11.3901673 25.3282465,11.6098584 25.4106306,11.8295495 C25.5911696,12.3513157 25.6930905,12.8926973 25.7793977,13.4380018 C25.7833208,13.6576929 25.8225513,13.9048453 25.7048597,14.1049211 C25.5950142,14.3010739 25.3754016,14.3952272 25.1674404,14.454073 C24.4102517,14.6502257 23.6178339,14.4658029 22.8606451,14.6502257 C22.2369579,14.7836096 21.6563066,15.1287992 21.2600388,15.6270663 C20.7932345,16.2076392 20.5460429,16.9294028 20.408736,17.6513625 C20.3028527,18.2947435 20.1694296,18.9380852 20.0635071,19.5853892 C20.8088875,19.5893907 21.5582302,19.5814662 22.3074944,19.5893907 C22.6056465,19.5893907 22.9116448,19.7541198 23.0332595,20.0365405 C23.1901817,20.3975008 23.1548742,20.8055377 23.1038745,21.1860347 C23.0411056,21.6136477 22.9391062,22.0372984 22.7468765,22.4296038 C22.5859528,22.7630635 22.3192636,23.069101 21.9544195,23.1867926 C21.7661129,23.2613306 21.562114,23.2456384 21.3620382,23.2456384 C20.7028866,23.2456384 20.0438134,23.2534453 19.3848187,23.2456384 C19.2788962,23.7282134 19.2082812,24.222479 19.1141279,24.7128609 C18.941592,25.6661239 18.7728614,26.6233492 18.6002078,27.5806138 C18.5962847,27.6120375 18.5923617,27.6786902 18.5923617,27.7139976 C18.902283,27.7296899 19.2122043,27.7139976 19.5221256,27.7218045 C21.8210356,27.7218045 24.1238687,27.717803 26.4267018,27.7218045 C26.6738542,27.7296899 26.9249297,27.670844 27.1406977,27.5491901 C27.2701585,27.5021527 27.3486196,27.3883449 27.4623882,27.3256152 C27.5722337,27.2628464 27.6036181,27.133464 27.6977715,27.0510014 C27.7997709,26.8705409 27.9056933,26.6823127 27.9135395,26.4703501 C27.9253086,26.4703501 27.9566931,26.466427 27.9723853,26.4625432 C27.9604592,19.2442012 27.9723853,12.0257806 27.9644607,4.80736013 Z" id="Path" stroke="#FCD109" stroke-width="0.094" fill="url(#linearGradient-1)" fill-rule="nonzero"/>
                <path d="M3.66506034,0.0604640253 C3.99851998,-0.0454584497 4.34767184,0.0251565336 4.68905606,0.00161820585 C11.0954043,0.00554126048 17.5017525,0.00161820585 23.9080222,0.00161820585 C24.2885585,-0.0140740127 24.6220182,0.201693992 24.9750931,0.311539522 C25.257553,0.425308106 25.5517821,0.515538362 25.834242,0.637153056 C25.8930879,0.660691383 25.9362415,0.711691094 25.9793166,0.754844695 C25.9753935,1.27268791 25.9793166,1.79445417 25.9793166,2.31622044 C25.9833181,2.45352735 25.9597013,2.59475732 26.006778,2.72814117 C26.0892406,2.73991034 26.1323157,2.80267921 26.187317,2.85367892 C26.4462386,2.97137056 26.6658512,3.16360024 26.9012344,3.32052242 C27.2543094,3.57159792 27.6310011,3.79128898 27.9761514,4.05021058 C27.9918044,4.15221 27.9800745,4.25813248 27.94869,4.35228579 C27.913461,4.46213132 27.9369209,4.57982296 27.9251517,4.68966849 C18.6314353,4.69359154 9.34164192,4.68966849 0.0518485627,4.69359154 C0.0322332896,4.56413074 0.0675407812,4.43466994 0.0126180164,4.31305524 C0.00477190718,4.21105582 -0.0305355845,4.07767197 0.0675407812,4.00705698 C0.459846244,3.73244316 0.875690035,3.48529072 1.26007093,3.19498467 C1.49945572,3.04198554 1.73083748,2.88506336 1.96229771,2.72814117 C2.00937436,2.64968008 1.99368214,2.55160371 1.99368214,2.46529651 C1.99368214,1.89645359 1.99368214,1.32761067 1.9976052,0.758767749 C2.13098905,0.586153346 2.36252774,0.566538072 2.54683285,0.480230871 C2.91967996,0.339000904 3.2962932,0.201693992 3.66506034,0.0604640253 M3.68859866,0.127155954 C3.18644767,0.319385631 2.68037363,0.503769198 2.17822263,0.695998875 C2.1115307,0.707768039 2.07614475,0.766613858 2.04091572,0.817613569 C2.04483878,0.848998006 2.04876183,0.90392077 2.04876183,0.935305207 C2.04476031,1.40607176 2.04876183,1.87683832 2.04476031,2.34760487 C2.04876183,2.46529651 2.03299115,2.58298815 2.07614475,2.68891063 C2.02514504,2.73991034 1.97030074,2.79091005 1.9074534,2.83014059 C1.33861048,3.19890773 0.789382833,3.5990593 0.220539912,3.96390338 C0.122463546,4.0227492 0.0126180164,4.10121029 0.0440024535,4.2306711 C0.0243871803,4.30128608 0.059694672,4.3601319 0.13423271,4.34051663 C1.36607186,4.33267052 2.59398796,4.34836273 3.82590558,4.32874746 C5.65797209,4.32874746 7.48611555,4.33267052 9.31818206,4.32874746 L9.34564344,4.3169783 C9.42802759,4.33659357 9.51033327,4.32874746 9.59664047,4.32874746 C12.9155447,4.32874746 16.2344489,4.33267052 19.5572369,4.32874746 C20.6008087,4.33267052 21.6482643,4.32874746 22.6956806,4.32874746 C24.4218247,4.32874746 26.151931,4.34443968 27.878075,4.33659357 C27.9290748,4.32482441 27.944767,4.28951692 27.9251517,4.22674804 C27.9211502,4.16397917 27.944767,4.07767197 27.878075,4.03844142 C27.6034612,3.90898062 27.3680779,3.70890483 27.1052333,3.55198264 C27.0111584,3.47352155 26.8894653,3.43036795 26.8188503,3.32444548 C26.5481595,3.17144635 26.297084,2.98313972 26.0302771,2.81444837 C25.9792381,2.78306394 25.9400076,2.73206423 25.8969325,2.68891063 C25.9204708,2.60652648 25.9283169,2.51629622 25.9283169,2.42998902 C25.9243938,1.93176108 25.9283169,1.43353315 25.9243938,0.935305207 C25.936163,0.856844115 25.9322007,0.766613858 25.8615465,0.715614148 C25.3907799,0.546922799 24.9240149,0.366462286 24.4570929,0.193847883 C24.3119399,0.123232899 24.1510947,0.0840023531 23.9941725,0.0604640253 L3.94344029,0.0604640253 C3.85729001,0.0643870799 3.77490587,0.107540681 3.68859866,0.127155954 L3.68859866,0.127155954 Z" id="Shape" stroke="#F8F3B5" stroke-width="0.094" fill="#F8F3B5" fill-rule="nonzero"/>
                <path d="M2.04876183,0.935305207 C2.39399064,1.08045823 2.76267931,1.16284238 3.11190963,1.30407234 C3.30021626,1.37861038 3.35906208,1.58260922 3.44144622,1.74737752 C3.35898361,1.82976166 3.26090725,1.89645359 3.16283088,1.95922247 C2.80190986,2.20245185 2.43314272,2.43783513 2.07614475,2.68891063 C2.03299115,2.58298815 2.04876183,2.46529651 2.04476031,2.34760487 C2.04876183,1.87683832 2.04483878,1.40607176 2.04876183,0.935305207 L2.04876183,0.935305207 Z M24.861246,1.30407234 C25.2103979,1.16676543 25.575242,1.07261212 25.9244723,0.935305207 C25.9283954,1.43353315 25.9244723,1.93176108 25.9283954,2.42998902 C25.9283954,2.51629622 25.9205492,2.60652648 25.8970109,2.68891063 C25.5910127,2.47706568 25.2810913,2.27698989 24.9750931,2.069068 C24.826017,1.95922247 24.6612487,1.87683832 24.5278649,1.74345446 C24.610249,1.57868617 24.6730179,1.37861038 24.861246,1.30407234 L24.861246,1.30407234 Z" id="Shape" stroke="#F7B402" stroke-width="0.094" fill="#F7B402" fill-rule="nonzero"/>
                <path d="M8.03534319,1.46491758 C8.4668792,1.36291816 8.94941492,1.74737752 8.91410743,2.1985288 C8.91803048,2.64183397 8.45110852,3.002755 8.02357403,2.90075558 C7.85095963,2.84190976 7.68611287,2.7516795 7.58026886,2.59868037 C7.44296194,2.39075847 7.41149905,2.1122216 7.52142304,1.88468443 C7.59988413,1.66499337 7.81172908,1.51591729 8.03534319,1.46491758 L8.03534319,1.46491758 Z M19.227818,1.71207002 C19.4082786,1.51199424 19.6946616,1.39822565 19.9614293,1.46884064 C20.1615051,1.52768646 20.3576578,1.65714726 20.443965,1.85329999 C20.6165794,2.19068269 20.4831955,2.64575703 20.1458128,2.82229448 C19.8475822,2.98706278 19.4710474,2.90860169 19.2435103,2.66929535 C19.01205,2.40645069 18.9962794,1.97491468 19.227818,1.71207002 L19.227818,1.71207002 Z" id="Shape" stroke="#BDA727" stroke-width="0.094" fill="#BDA727" fill-rule="nonzero"/>
                <path d="M3.16290934,1.95922247 C3.26098571,1.89645359 3.35906208,1.82976166 3.44152468,1.74737752 L3.46890761,1.7748389 C3.49636899,1.97883774 3.47675371,2.18675963 3.48459982,2.39075847 C3.47283066,3.002755 3.49636899,3.61867457 3.46890761,4.2306711 C2.32729871,4.2306711 1.18576827,4.22282499 0.0440809146,4.2306711 C0.0126964775,4.10121029 0.122542007,4.0227492 0.220618373,3.96390338 C0.789461294,3.5990593 1.33868894,3.19890773 1.90753186,2.83014059 C1.9703792,2.79091005 2.0252235,2.73991034 2.07622321,2.68891063 C2.43322118,2.43783513 2.80198832,2.20245185 3.16290934,1.95922247 L3.16290934,1.95922247 Z M24.4885558,1.88076137 C24.4885558,1.82976166 24.5004035,1.78660806 24.5277864,1.74345446 C24.6611702,1.87683832 24.826017,1.95922247 24.9750146,2.069068 C25.2810129,2.27698989 25.5909342,2.47706568 25.8969325,2.68891063 C25.9400861,2.73206423 25.9793166,2.78306394 26.0302771,2.81444837 C26.297084,2.98313972 26.5480811,3.17144635 26.8188503,3.32444548 C26.8894653,3.43036795 27.0110407,3.47352155 27.1052333,3.55198264 C27.3680779,3.70890483 27.6034612,3.90898062 27.878075,4.03844142 C27.944767,4.07767197 27.9212286,4.16397917 27.9251517,4.22674804 C26.7834643,4.2306711 25.6457785,4.22282499 24.5042481,4.2306711 C24.4846328,4.07374891 24.496402,3.91682673 24.4924789,3.76382759 C24.4925574,3.13613885 24.4847113,2.50845011 24.4885558,1.88076137 L24.4885558,1.88076137 Z" id="Shape" stroke="#F7E62D" stroke-width="0.094" fill="#F7E62D" fill-rule="nonzero"/>
                <path d="M27.9252302,4.22674804 C26.7835428,4.2306711 25.645857,4.22282499 24.5043265,4.2306711 C24.4847113,4.07374891 24.4964804,3.91682673 24.4925574,3.76382759 C24.4925574,3.13613885 24.4847113,2.50845011 24.4885558,1.88076137 C24.4885558,1.82976166 24.5004035,1.78660806 24.5277864,1.74345446 C24.610249,1.57868617 24.6729394,1.37861038 24.861246,1.30407234 C25.2103979,1.16676543 25.575242,1.07261212 25.9244723,0.935305207 C25.9362415,0.856844115 25.9323184,0.766613858 25.861625,0.715614148 C25.3908584,0.546922799 24.9240934,0.366462286 24.4571714,0.193847883 C24.3120184,0.123232899 24.1511731,0.0840023531 23.994251,0.0604640253 L3.94351875,0.0604640253 C3.85721155,0.0643870799 3.77482741,0.107540681 3.6885202,0.127155954 C3.18636921,0.319385631 2.68029516,0.503769198 2.17814417,0.695998875 C2.11145224,0.707768039 2.07606629,0.766613858 2.04083726,0.817613569 C2.04476031,0.848998006 2.04868337,0.90392077 2.04868337,0.935305207 C2.39391218,1.08045823 2.76260085,1.16284238 3.11183117,1.30407234 C3.3001378,1.37861038 3.35898361,1.58260922 3.44136776,1.74737752 L3.46875068,1.7748389 C3.49621207,1.97883774 3.47659679,2.18675963 3.4844429,2.39075847 C3.47267374,3.002755 3.49621207,3.61867457 3.46875068,4.2306711 C2.32714179,4.2306711 1.18561135,4.22282499 0.0439239924,4.2306711 C0.0243087192,4.30128608 0.0596162109,4.3601319 0.134154249,4.34051663 C1.3659934,4.33267052 2.5939095,4.34836273 3.82582712,4.32874746 C5.65789363,4.32874746 7.48603708,4.33267052 9.3181036,4.32874746 L9.34556498,4.3169783 C9.42794913,4.33659357 9.51025481,4.32874746 9.59656201,4.32874746 C12.9154662,4.32874746 16.2343704,4.33267052 19.5571585,4.32874746 C20.6007302,4.33267052 21.6481858,4.32874746 22.6956022,4.32874746 C24.4217462,4.32874746 26.1518525,4.34443968 27.8779966,4.33659357 C27.9291532,4.32482441 27.9448454,4.28951692 27.9252302,4.22674804 L27.9252302,4.22674804 Z M7.52142304,1.88468443 C7.59988413,1.66499337 7.81165062,1.51591729 8.03534319,1.46491758 C8.4668792,1.36291816 8.94941492,1.74737752 8.91410743,2.1985288 C8.91803048,2.64183397 8.45110852,3.002755 8.02357403,2.90075558 C7.85095963,2.84190976 7.68611287,2.7516795 7.58026886,2.59868037 C7.44296194,2.39075847 7.41157751,2.1122216 7.52142304,1.88468443 Z M19.227818,1.71207002 C19.4082786,1.51199424 19.6946616,1.39822565 19.9614293,1.46884064 C20.1615051,1.52768646 20.3576578,1.65714726 20.443965,1.85329999 C20.6165794,2.19068269 20.4831955,2.64575703 20.1458128,2.82229448 C19.8475822,2.98706278 19.4710474,2.90860169 19.2435103,2.66929535 C19.01205,2.40645069 18.9962794,1.97491468 19.227818,1.71207002 Z" id="Shape" stroke="#FCD109" stroke-width="0.094" fill="url(#radialGradient-2)" fill-rule="nonzero"/>
                <path d="M20.2277262,5.95077363 C20.2825705,5.96254279 19.941814,5.62335549 20.0085059,5.60766327 C20.0712748,5.61550938 20.3092473,5.43077274 20.5969641,5.5814965 C20.8846025,5.73222025 20.8132813,6.0849421 20.7806415,6.21573674 C20.7418033,6.37140355 20.6427069,6.47073529 20.5642458,6.54919638 C20.5210922,6.58450387 20.4243497,6.63942664 20.3655039,6.63550358 C20.4008114,6.44327391 20.2870428,6.41188947 20.2791967,6.21573674 L20.2277262,5.95077363 Z" id="Path" stroke="#FCD109" stroke-width="0.094" fill="url(#linearGradient-3)" fill-rule="nonzero"/>
                <path d="M7.68681902,6.16344242 C7.67897291,6.35959515 7.56512587,6.39097959 7.60051182,6.58320926 C7.541666,6.58713232 7.44484501,6.53220955 7.40173064,6.49690206 C7.32326955,6.41844097 7.22429088,6.31910923 7.18537418,6.16344242 C7.15273436,6.03268701 7.081374,5.67996517 7.3690516,5.52920218 C7.65672919,5.37843919 7.89474092,5.56317583 7.95750979,5.55536895 C8.02420172,5.57106117 7.68344519,5.91024847 7.7382895,5.89847931 L7.68681902,6.16344242 Z" id="Path" stroke="#FCD109" stroke-width="0.094" fill="url(#linearGradient-4)" fill-rule="nonzero"/>
                <path d="M19.7141199,8.46388242 C19.7731226,8.41264733 19.8123532,8.41264733 19.8908143,8.41264733 C19.4200477,9.43264153 18.8708201,10.4526357 18.0450563,11.2467797 C17.9567368,11.3256187 17.8634512,11.3987114 17.7657741,11.4656077 C17.6712284,11.5347711 17.5785659,11.5996584 17.4864133,11.6657619 C17.3961831,11.7284131 17.306502,11.7914174 17.2191748,11.8571285 C16.9955607,11.9787432 16.799408,12.1474738 16.5522556,12.2219726 C16.1011043,12.4377406 15.614724,12.5828936 15.1243421,12.6848931 C14.9321125,12.7163167 14.7359597,12.7633541 14.539807,12.7672772 C14.2965776,12.8379314 14.037656,12.7868925 13.7905036,12.8025847 C13.6531967,12.826123 13.5315035,12.7476619 13.3981981,12.7633541 C13.282468,12.746995 13.1670125,12.7273797 13.0522631,12.7044691 C12.9358138,12.680674 12.8201438,12.6532121 12.7054259,12.6221242 C10.9070192,12.0610881 9.1416446,10.688019 8.62733214,8.83104111 C8.60415848,8.70598214 8.59241695,8.57906577 8.59241695,8.45187788 C8.64730048,8.56172341 8.70422401,8.67078432 8.76310906,8.77882525 C9.49471952,10.3741746 10.9462497,11.6295521 12.6610954,12.0080877 C12.8002853,12.0715627 12.9509306,12.049319 13.0843537,12.1042417 C13.2059684,12.1042417 13.3236601,12.1003187 13.4413517,12.1395492 C13.8454263,12.1473561 14.249501,12.1434723 14.6535756,12.1434723 C14.7084199,12.1473953 14.7594196,12.119934 14.8144208,12.1081648 C15.4878524,12.0853326 16.1477102,11.9016552 16.7620998,11.6231183 C16.8850483,11.5674109 17.0061138,11.5078982 17.1251,11.4451293 C17.2292556,11.3903078 17.3309359,11.3309071 17.4298429,11.2671011 C17.5269914,11.2044778 17.6214512,11.1377787 17.7129697,11.0671822 C18.4392841,10.4918663 19.0669728,9.7464859 19.4932127,8.8893377 C19.5743415,8.73508319 19.6485657,8.59224477 19.7141199,8.46388242 Z" id="Path" stroke="#BDA727" stroke-width="0.094" fill="#BDA727" fill-rule="nonzero"/>
                <path d="M19.0747405,11.9512426 C20.2398877,11.2686311 21.5894969,10.9390945 22.9311816,10.8763256 C23.3666407,10.8370951 23.8060228,10.8488643 24.2375588,10.903787 C24.5200187,10.9704789 24.8103248,11.04894 25.0339389,11.2411697 C24.9201703,11.2490158 24.8103248,11.1980161 24.6965562,11.1823239 C24.3748657,11.119555 24.0414061,11.1430934 23.7157925,11.1352472 C22.7702579,11.1352472 21.8170341,11.2097853 20.9029624,11.4687069 C20.4243497,11.6138599 19.945737,11.7825513 19.510278,12.0336268 C18.7570515,12.4494705 18.078363,12.9986982 17.5291354,13.6577714 C16.5483717,14.7837273 15.9716827,16.2116799 15.6931458,17.6671724 C15.559762,18.4477818 15.4066844,19.2245074 15.2851481,20.0091184 C15.0889954,20.0287336 14.8889196,20.0170037 14.6927669,20.0170037 C13.8296949,20.0130806 12.9666229,20.0091184 12.1035508,20.0013899 C11.9191673,20.0091184 11.7386283,19.9660824 11.5543232,19.9777731 C9.98510134,19.98558 8.41587949,19.9738501 6.84665764,19.9738501 L6.87804208,19.9620417 C8.0431893,19.8403485 9.21225958,19.7030416 10.3774068,19.5893515 C11.8563199,19.5815446 13.3314669,19.58535 14.8104585,19.5893515 C14.8574567,19.5815446 14.9399193,19.6049653 14.9477654,19.5383126 C15.0693801,18.9028169 15.1870718,18.2673213 15.308608,17.631708 C15.4773778,16.7491384 15.7441455,15.8781811 16.1560663,15.0739549 C16.8033703,13.7793468 17.8272875,12.6808915 19.0747405,11.9512426 Z" id="Path" stroke="#0D69B3" stroke-width="0.094" fill="#0D69B3" fill-rule="nonzero"/>
                <path d="M20.9029624,11.4687069 C21.8170341,11.2097853 22.7703364,11.1352472 23.7157925,11.1352472 C24.0414061,11.1430934 24.3748657,11.119555 24.6965562,11.1823239 C24.8102463,11.1980161 24.9200919,11.2490158 25.0339389,11.2411697 C25.2183225,11.3902458 25.328168,11.6099369 25.4105521,11.8296279 C25.5910911,12.3513942 25.6930121,12.8927757 25.7793193,13.4380803 C25.7832423,13.6577714 25.8224729,13.9049238 25.7047812,14.1049996 C25.5949357,14.3011523 25.3753231,14.3953056 25.167362,14.4541515 C24.4101732,14.6503042 23.6177554,14.4658814 22.8605666,14.6503042 C22.2368794,14.783688 21.6562281,15.1288776 21.2599603,15.6271448 C20.7931561,16.2077176 20.5459644,16.9294812 20.4086575,17.651441 C20.3027742,18.2948219 20.1693512,18.9381637 20.0634287,19.5854677 C20.016352,19.7306599 19.9889299,19.8875821 19.9614293,20.0406205 C20.7028081,20.0524289 21.4443439,20.0406205 22.1858012,20.0484274 C22.4681827,20.0406205 22.7506426,20.0562342 23.033181,20.036619 C23.1901032,20.3975792 23.1547957,20.8056161 23.103796,21.1861132 C23.0410271,21.6137262 22.9390277,22.0373768 22.7467981,22.4296823 C22.5858744,22.7631419 22.3191851,23.0691794 21.954341,23.1868711 C21.7660344,23.2614091 21.5620356,23.2457169 21.3619598,23.2457169 C20.7028081,23.2457169 20.043735,23.2535238 19.3847402,23.2457169 C19.2788178,23.7282918 19.2082028,24.2225575 19.1140495,24.7129393 C18.9415135,25.6662024 18.7727829,26.6234277 18.6001293,27.5806922 C18.5962063,27.6121159 18.5922832,27.6787686 18.5922832,27.7140761 L18.5922832,27.7179992 C16.8779083,27.7179992 15.1674565,27.7220007 13.4530816,27.7179992 C13.4570439,27.7023854 13.4609277,27.6748456 13.4648508,27.6591533 C13.4688523,27.6395381 13.4726969,27.5963845 13.4766592,27.5728854 C13.4806215,27.604309 13.4844661,27.6631549 13.4884676,27.690577 C13.5943508,27.7023854 13.7866197,27.7572297 13.8140811,27.604309 C14.0808488,26.1605857 14.3280013,24.7090555 14.6026151,23.2653322 C14.4967319,23.2417938 14.3868471,23.2417938 14.2770016,23.2614091 C14.2613878,23.3163319 14.2456171,23.3712154 14.2260019,23.4261382 L14.2495402,23.2496007 C13.1825478,23.2455992 12.1114754,23.2496007 11.044483,23.2455992 C10.7854829,23.2378708 10.5187937,23.2455992 10.2598721,23.214254 C9.81656692,23.1946387 9.36933869,23.2103309 8.92603352,23.1671381 C8.37680587,23.1671381 7.83150127,23.1161776 7.28227363,23.1161776 C6.85073762,23.073024 6.41527855,23.088677 5.97981949,23.0690617 C5.69743802,23.0338327 5.40705351,23.0494465 5.12074899,23.0377165 C4.65390549,22.9866776 4.17921588,23.0221028 3.71237238,22.9709854 C3.21806749,22.9749869 2.72376261,22.9317548 2.22945773,22.9200249 C2.23338078,22.9161018 2.23730384,22.9004096 2.23730384,22.8964866 C2.40207213,22.9004096 2.56291737,22.8886012 2.72768566,22.8846782 C3.09252974,22.8376407 3.46129688,22.8689859 3.82614096,22.8180255 C4.20667726,22.8180255 4.5832905,22.7669865 4.9638268,22.7669865 C5.3012095,22.7199491 5.64251525,22.7473713 5.97981949,22.7003338 C6.37612647,22.7003338 6.76443042,22.6492949 7.16073739,22.6454111 C7.48635093,22.6022575 7.81588752,22.6257958 8.14150105,22.5826422 C8.52203735,22.5865652 8.89865059,22.5277194 9.27918689,22.5316032 C9.65187708,22.4883712 10.0323349,22.5001796 10.4050251,22.460949 C10.3697961,22.3158352 10.3422562,22.1707215 10.3109503,22.02549 C10.2834889,21.9352205 10.1736433,21.9548358 10.1030284,21.9431058 C9.25172551,21.8214127 8.40434571,21.6998372 7.55696591,21.5821456 C7.61188868,21.5389135 7.68642671,21.5585288 7.74919559,21.5508004 C8.40826877,21.499683 9.06341889,21.4408371 9.72249207,21.3938782 C9.87156814,21.3859928 10.0167212,21.3585707 10.1657972,21.3546476 C10.0991053,21.1506096 10.0598748,20.9270347 9.96964451,20.7386888 C8.56134636,20.5229208 7.15289129,20.3306911 5.74843773,20.0992701 C6.11328181,20.0404243 6.48204894,20.0129237 6.84689302,19.9736932 C8.41611488,19.9736932 9.98533673,19.9855016 11.5545586,19.9776162 C11.7388637,19.9658863 11.9194027,20.0090399 12.1037862,20.001233 C12.9668582,20.0090399 13.8299303,20.0130414 14.6930023,20.0168468 C14.889155,20.0168468 15.0892308,20.0286552 15.2853835,20.0090399 C15.4069982,19.224429 15.5599974,18.4476249 15.6933812,17.6670155 C15.9719181,16.2114838 16.5486071,14.7835704 17.5293708,13.6576929 C18.0785984,12.9985805 18.7572869,12.4493529 19.5105134,12.0335091 C19.945737,11.7825513 20.4243497,11.6138599 20.9029624,11.4687069 Z" id="Path" stroke="#107BD4" stroke-width="0.094" fill="#107BD4" fill-rule="nonzero"/>
                <path d="M20.0634287,19.5854677 C20.8088091,19.5894692 21.558191,19.5815446 22.3074159,19.5894692 C22.6055681,19.5894692 22.9115663,19.7541983 23.033181,20.036619 C22.7507211,20.0562342 22.4682612,20.0406205 22.1858012,20.0484274 C21.4443439,20.0406205 20.7028081,20.0524289 19.9614293,20.0406205 C19.9888906,19.8875821 20.0162736,19.7306599 20.0634287,19.5854677 L20.0634287,19.5854677 Z M14.2769231,23.2614091 C14.3867686,23.2417938 14.4966926,23.2417938 14.6025366,23.2653322 C14.3279228,24.7090555 14.0807704,26.1605857 13.8140027,27.604309 C13.7865413,27.7572297 13.5942724,27.7023854 13.4883891,27.690577 C13.4843876,27.6631549 13.480543,27.604309 13.47662,27.5728854 C13.7237724,26.1920094 13.9630003,24.8071319 14.2259234,23.4262559 C14.2455387,23.3712154 14.2612309,23.3163711 14.2769231,23.2614091 Z" id="Shape" stroke="#0D69B3" stroke-width="0.094" fill="#0D69B3" fill-rule="nonzero"/>
                <path d="M20.406539,6.06061916 C20.3751546,6.00177334 20.3712708,5.93115836 20.3712708,5.86446643 L20.3398471,5.86838948 C20.2928097,5.69577508 20.1476959,5.53100678 19.95935,5.52316067 C19.8180808,5.51139151 19.6415434,5.51531456 19.5592377,5.64869842 C19.4023155,5.86054337 19.4767751,6.13123414 19.4689682,6.37054047 C19.4689682,6.38623269 19.4729305,6.41369407 19.4729305,6.42938629 C19.4729305,6.59023153 19.4533152,6.74715372 19.4258538,6.9040759 C19.4023155,6.95115256 19.3905856,7.00215227 19.3905856,7.05707503 C19.3239329,7.42584217 19.1904706,7.79068625 19.0100885,8.12414589 C18.974781,8.17122255 18.9472412,8.22222226 18.9355505,8.27714502 C18.8178588,8.48114386 18.6766289,8.66945049 18.5314759,8.85775711 C18.5078983,8.87737238 18.488283,8.90091071 18.4686677,8.92444904 C18.3666291,9.04998678 18.256862,9.15590926 18.143015,9.26575479 C18.1155928,9.28144701 18.0959776,9.30106228 18.0724,9.3167545 C17.9390554,9.4462153 17.7899401,9.56783 17.6290948,9.66590636 C17.6094796,9.67767553 17.5898643,9.69336774 17.5662867,9.70905996 C16.5619455,10.3720562 15.341954,10.64667 14.1532292,10.6584392 C13.1450434,10.6898236 12.1288938,10.4740556 11.2187451,10.0385966 C11.2031313,10.0307504 11.1639008,10.0150582 11.1481301,10.0072121 C10.9951702,9.92482797 10.838248,9.85421298 10.6969788,9.75221356 C10.6655944,9.73652134 10.63421,9.71690607 10.5989025,9.70121385 C10.4537494,9.61490665 10.3164425,9.52075334 10.1869817,9.41090781 C10.1438281,9.37167726 10.0967515,9.34029283 10.0496748,9.30498534 C9.90844486,9.19121675 9.76329184,9.06960206 9.6417556,8.93229515 C9.61037117,8.89698765 9.57890827,8.86560322 9.54760229,8.83421878 C9.1200678,8.39091361 8.78660815,7.84953207 8.6100707,7.26107387 C8.44130089,6.79423037 8.46491768,6.28423327 8.4453024,5.79385144 C8.30399397,5.57808344 8.00592028,5.45646874 7.77053701,5.5898526 C7.67246064,5.66046759 7.66069148,5.78992839 7.58615344,5.88015864 C7.46453874,7.17476667 8.01768945,8.46545165 8.90037674,9.39913865 C8.90037674,9.43052308 8.91606896,9.45013836 8.9436088,9.46190752 C9.10053099,9.60706054 9.25345166,9.75613662 9.41037384,9.89736658 C9.43783522,9.92482797 9.46921966,9.95228935 9.50452715,9.97582768 C9.66144934,10.1052885 9.83014069,10.2229801 9.99490898,10.3445948 C10.0262934,10.3681331 10.0576779,10.3877484 10.0929853,10.4073637 C10.3087534,10.5329014 10.5126737,10.6819775 10.7442124,10.7682847 C10.7599046,10.7800539 10.787366,10.7996691 10.8030582,10.8075153 C11.5484386,11.1645132 12.3526648,11.4077426 13.1765063,11.4862037 C13.2667365,11.4862037 13.3569668,11.4940498 13.4471971,11.5136651 C13.8395025,11.5372034 14.231808,11.5254343 14.6241134,11.5175881 C15.8362589,11.4116657 17.0877917,11.1174366 18.0999398,10.4034406 L18.111709,10.4191329 C18.1430934,10.3916715 18.1705548,10.3681331 18.2019393,10.3445948 C18.362863,10.2269032 18.5197851,10.1013654 18.6767073,9.97190462 C18.7119364,9.94444324 18.7511669,9.9130588 18.7865529,9.87775131 C18.959128,9.68944469 19.1592431,9.51683029 19.3043961,9.30106228 L19.3279344,9.31283145 C19.3397036,9.29321617 19.3593188,9.25398563 19.3711665,9.23437035 C19.5044719,9.05390984 19.626165,8.86560322 19.7438567,8.6772966 C19.7516243,8.66552743 19.7712396,8.64591216 19.7790857,8.63414299 L19.7634719,8.61845078 C19.7752411,8.60275856 19.8027025,8.57137412 19.8144716,8.5556819 C20.0302396,8.11629978 20.2223909,7.65730239 20.2891612,7.17084362 C20.3166226,7.15907445 20.3323541,7.13553613 20.3323541,7.10807474 C20.3363164,6.95115256 20.3911999,6.80207648 20.3755469,6.6451543 C20.4104229,6.45292462 20.4143852,6.25677189 20.406539,6.06061916 L20.406539,6.06061916 Z" id="Path" stroke="#FFFFFF" stroke-width="0.094" fill="#FFFFFF" fill-rule="nonzero"/>
                <g id="Clipped" transform="translate(7.569452, 5.518875)">
                    <mask id="mask-6" fill="white">
                        <use xlink:href="#path-5"/>
                    </mask>
                    <g id="e"/>
                    <g id="Group" mask="url(#mask-6)" stroke="#D1D1D1" stroke-width="2">
                        <g transform="translate(-0.284707, -0.035377)" id="Shape">
                            <path d="M-1.11499919e-15,0.448204698 C0.318002808,0.564459593 1.04859327,0.271970872 1.25537748,0.539635996 M0.18308896,1.41226044 C0.487831843,1.30622027 1.14129505,1.05514477 1.41229967,1.20304393 M0.49693333,2.37996032 C0.644244031,2.42766467 0.934628535,2.16886075 1.07887925,2.09302811 C1.29347034,1.98016182 1.51363217,1.89365847 1.75231081,1.85689945 M0.967699885,3.39995452 C1.11963979,3.1840296 1.3015126,3.00470677 1.52100751,2.85131533 C1.73858012,2.6993362 2.33378597,2.29326081 2.58921605,2.43225464 M1.41229967,4.13227113 C1.58475715,3.99516037 1.65497983,3.75263714 1.83606803,3.60858257 C2.0551314,3.43432048 2.39074872,3.40305374 2.61538283,3.29532666 M2.15112854,4.67490805 C2.20271671,4.29562713 2.58784299,3.83792434 2.95535474,3.87068185 M2.71997147,5.20455965 C2.91416267,5.1851013 3.0784602,4.75042685 3.20976484,4.60311615 C3.40654526,4.38244433 3.61038717,4.31457548 3.87068185,4.23685977 M3.84455431,5.67532621 C3.83200053,5.40086931 4.11559815,4.61394378 4.4461155,4.65533201 M4.68149878,5.93687626 C4.66772886,5.6125181 4.83543944,4.63689365 5.23072643,4.60303769 M5.5445708,6.45993713 C5.46960122,6.00635356 5.47446581,5.35018344 5.83220916,5.02147069 M6.61689855,6.564565 C6.57700109,6.186461 6.20129014,5.42213226 6.61689855,5.12609856 M7.76760893,6.30301495 C7.58824688,6.09505382 7.48397208,5.2747431 7.5583532,5.04763747 M8.86606423,6.11992599 C8.72773732,5.8687328 8.55629984,5.63283953 8.50388783,5.34123888 C8.47258185,5.16697679 8.52746539,4.91872589 8.49988631,4.78608742 M9.7814698,5.72762053 C9.48139535,5.5313501 9.3981089,4.80997882 9.49375297,4.49840982 M10.6706694,5.33531506 C10.4572552,4.87745536 10.2296788,4.52245815 10.2260303,4.00147649 M11.5337414,4.49840982 C11.2020863,4.2753057 10.7788672,3.86974032 10.8275915,3.4261213 M12.4491469,3.79225999 C11.9452306,3.68060985 11.3404917,3.22973318 11.0368473,2.8245601 M12.86758,2.92918797 C12.5040697,2.85123687 11.3029481,2.382628 11.3768192,1.90919377 M13.2598854,2.01382163 C12.7534191,1.82814346 12.0165909,1.66121748 11.6122025,1.3076718 M13.5213962,1.17687716 C13.2023734,1.20418162 12.7453376,1.04973096 12.4210971,0.993788199 C12.0610392,0.931686244 11.7271872,0.810346164 11.3768192,0.732238146 M13.2075519,0.366138689 C12.5922207,0.402976171 12.0148648,0.19242583 11.4552803,-1.11499919e-15"/>
                        </g>
                    </g>
                </g>
            </g>
        </g>
    </g>
</svg>