<?xml version="1.0" encoding="utf-8"?>
<svg xmlns="http://www.w3.org/2000/svg" xmlns:xlink="http://www.w3.org/1999/xlink" width="20px" height="16px" viewBox="0 0 20 16" version="1.1">
    <title>Rectangle 2</title>
    <defs>
        <linearGradient x1="0%" y1="45.2011931%" x2="100%" y2="45.2011931%" id="linearGradient-1">
            <stop stop-color="#48C479" offset="0%"/>
            <stop stop-color="#36945C" offset="100%"/>
        </linearGradient>
    </defs>
    <g id="Page-1" stroke="none" stroke-width="1" fill="none" fill-rule="evenodd">
        <g id="How-it-works" transform="translate(-229.000000, -2875.000000)" fill="url(#linearGradient-1)">
            <g id="Group-36-Copy" transform="translate(199.000000, 2849.000000)">
                <g id="Group-42" transform="translate(30.000000, 21.000000)">
                    <path d="M2.92332482,5.52481765 L10.1,7.07906485 L10.1,7.07906485 L17.2766752,5.52481765 C18.3562183,5.29102181 19.4208898,5.97663542 19.6546857,7.05617851 C19.6848092,7.19527259 19.7,7.33718471 19.7,7.47950333 L19.7,18.4186567 C19.7,19.5232262 18.8045695,20.4186567 17.7,20.4186567 C17.5314841,20.4186567 17.3636439,20.3973588 17.2004689,20.3552694 L10.1,18.5237699 L10.1,18.5237699 L2.9995311,20.3552694 C1.92996945,20.6311528 0.839270726,19.9877494 0.563387318,18.9181878 C0.52129786,18.7550128 0.5,18.5871726 0.5,18.4186567 L0.5,7.47950333 C0.5,6.37493383 1.3954305,5.47950333 2.5,5.47950333 C2.64231862,5.47950333 2.78423073,5.49469415 2.92332482,5.52481765 Z" id="Rectangle"/>
                </g>
            </g>
        </g>
    </g>
</svg>