<?xml version="1.0" encoding="utf-8"?>
<svg xmlns="http://www.w3.org/2000/svg" width="18" height="16" viewBox="0 0 18 16">
    <g fill="none" fill-rule="evenodd">
        <g fill="#FFF" fill-rule="nonzero" stroke="#FFF" stroke-width=".2">
            <path d="M16.68 12.375a43.272 43.272 0 0 1-3.234-2.449c-1.79-1.5-3.587-6.594-3.605-6.646a.068.068 0 0 0 0-.02v-.018a.105.105 0 0 0-.015-.024l-.037-.03-.017-.016-.022-.017-.018-.013-.026-.007h-.028a.195.195 0 0 0-.042-.01.164.164 0 0 0-.042 0l-.043.01-.044.018c-.367.18-.763.293-1.17.334a3.339 3.339 0 0 1-.459.02c-1.23-.031-2.284-.717-3.132-2.027a.16.16 0 0 0-.031-.038l-.01-.01-.027-.023h-.015l-.027-.015h-.017l-.053-.048h-.144l-.02.011H4.38c-.074.046-1.843 1.148-3.87 4.3v.019a.11.11 0 0 0-.01.02.14.14 0 0 0 0 .024.12.12 0 0 0 0 .022v.048c-.002.016-.002.033 0 .05.018.097.537 2.469 8.45 7.152 2.36 1.435 4.257 2.143 5.648 2.143.097 0 .184 0 .284-.013h.051a.947.947 0 0 0 .101-.011h.065l.09-.015.068-.013.083-.016.074-.019.076-.02.073-.022.068-.024.08-.03.059-.024h.016l.074-.035.037-.016a2.194 2.194 0 0 0 1.157-1.555.905.905 0 0 0-.374-.947zM4.444 1.952l.026.037.046.064c.366.52.826.968 1.356 1.32l.022.014.031.019c.47.298 1.001.487 1.554.553h.095l.116.009H8.38l.095-.011h.022l.083-.011h.034l.068-.013h.03l.09-.019h.02l.07-.014h.03l.064-.017h.02l.08-.022h.018l.059-.019h.022l.06-.018h.012l.066-.024h.016l.048-.018h.017l.055-.022c.044.121.105.281.184.471a4.645 4.645 0 0 1-1.696.326h-.083c-1.047-.079-2.547-.479-3.816-2.29.162-.138.297-.241.396-.315zm-.91.778.134-.128C5.052 4.548 6.7 4.987 7.847 5.01h.092A5.177 5.177 0 0 0 9.82 4.64c.12.297.258.632.415.99l-1.94.92a.252.252 0 0 0 .108.482c.038 0 .074-.01.107-.026l1.933-.907c.135.297.28.605.433.922l-1.373.737a.252.252 0 0 0 .12.473c.042 0 .083-.01.12-.031l1.361-.737c.601 1.146 1.303 2.248 2.027 2.85a43.627 43.627 0 0 0 3.274 2.478c.137.094.202.26.166.422-.054.178-.124.351-.21.516-.842.418-2.651.442-6.482-1.826-3.983-2.35-6.004-4.077-6.99-5.11-1.07-1.106-1.218-1.685-1.223-1.705a.232.232 0 0 0-.052-.107 16.755 16.755 0 0 1 1.92-2.251zM2.2 7.472l-.09-.094-.026-.028-.06-.064-.029-.03-.057-.064-.022-.024c-.026-.03-.051-.057-.075-.087l-.065-.075-.018-.022-.05-.06a.118.118 0 0 1-.018-.023.902.902 0 0 1-.054-.065l-.01-.01a1.114 1.114 0 0 1-.06-.078c-.02-.024-.037-.048-.055-.072l-.01-.01-.045-.064a3.401 3.401 0 0 1-.435-.737c.086-.134.173-.263.258-.388.353.759 1.88 3.042 8.348 6.87 2.364 1.399 4.261 2.106 5.65 2.106.115 0 .224 0 .33-.015h-.03l-.049.02h-.026l-.047.017c-.433.151-1.065.197-1.98-.01h-.067c-1.263-.297-2.687-.996-3.906-1.696a2.673 2.673 0 0 0-.124-.07l-.04-.022-.157-.092C5.214 10.232 3.195 8.505 2.2 7.472zM8.785 14.63H.73a.252.252 0 1 0 0 .503h8.055a.252.252 0 1 0 0-.503zM2.747 11.33a.252.252 0 0 0 0-.505H.73a.252.252 0 1 0 0 .505h2.017zM4.774 13.173a.252.252 0 0 0 0-.505H.73a.252.252 0 1 0 0 .505h4.044z"/>
        </g>
        <path d="M.266.74h17v15h-17z"/>
    </g>
</svg>