<?xml version="1.0" encoding="utf-8"?>
<svg xmlns="http://www.w3.org/2000/svg" width="18" height="18" viewBox="0 0 18 18">
    <g fill="none" fill-rule="evenodd">
        <path d="m8.957 16.83-.5.284a1 1 0 0 1-1.3-.277l-.34-.462a1 1 0 0 0-.905-.403l-.57.057a1 1 0 0 1-1.076-.782l-.123-.56a1 1 0 0 0-.663-.736l-.544-.18a1 1 0 0 1-.665-1.153l.116-.562a1 1 0 0 0-.306-.941l-.424-.387a1 1 0 0 1-.14-1.322l.335-.466a1 1 0 0 0 .104-.985l-.23-.526a1 1 0 0 1 .41-1.265l.496-.29a1 1 0 0 0 .495-.857l.003-.574a1 1 0 0 1 .89-.988l.57-.063a1 1 0 0 0 .801-.583l.237-.522a1 1 0 0 1 1.215-.541l.546.174a1 1 0 0 0 .97-.206l.428-.382a1 1 0 0 1 1.33 0l.428.382a1 1 0 0 0 .969.206l.547-.174a1 1 0 0 1 1.215.54l.236.523a1 1 0 0 0 .801.583l.57.063a1 1 0 0 1 .89.988l.004.574a1 1 0 0 0 .495.858l.495.29a1 1 0 0 1 .411 1.264l-.23.526a1 1 0 0 0 .103.985l.335.466a1 1 0 0 1-.14 1.322l-.424.387a1 1 0 0 0-.306.941l.117.562a1 1 0 0 1-.665 1.152l-.545.18a1 1 0 0 0-.663.737l-.122.56a1 1 0 0 1-1.076.782l-.571-.057a1 1 0 0 0-.905.403l-.34.462a1 1 0 0 1-1.3.277l-.5-.284a1 1 0 0 0-.99 0z" fill="#FFF"/>
        <g transform="translate(6.952 6.74)" stroke="#48C479" stroke-linecap="round" stroke-linejoin="round" stroke-width=".8">
            <path d="M4.688.313.313 4.688"/>
            <circle cx=".781" cy=".781" r="1"/>
            <circle cx="4.219" cy="4.219" r="1"/>
        </g>
        <path d="M.952.74h17v17h-17z"/>
    </g>
</svg>