<svg xmlns="http://www.w3.org/2000/svg" width="15" height="15" fill="none" viewBox="0 0 15 15"><g opacity=".2"><path stroke="#48C479" d="M7.5 1C11.0873 1 14 3.91265 14 7.5C14 11.0873 11.0873 14 7.5 14C3.91265 14 1 11.0873 1 7.5C1 3.91265 3.91265 1 7.5 1Z"/></g><path fill="#48C479" stroke="#48C479" stroke-linecap="round" d="M7.5 1C11.0873 1 14 3.91265 14 7.5C14 11.0873 11.0873 14 7.5 14C3.91265 14 1 11.0873 1 7.5C1 3.91265 3.91265 1 7.5 1Z"/><path stroke="#fff" stroke-linecap="round" stroke-linejoin="round" d="M5 7.60696L6.80783 9.3L9.84956 6"/></svg>